<mxfile host="app.diagrams.net" modified="2023-08-14T06:27:11.807Z" agent="Mozilla/5.0 (Windows NT 10.0; Win64; x64) AppleWebKit/537.36 (KHTML, like Gecko) Chrome/115.0.0.0 Safari/537.36 Edg/115.0.1901.203" etag="RCR0M9fM37pHmnyTQcVF" version="21.6.8" type="github">
  <diagram id="C5RBs43oDa-KdzZeNtuy" name="Page-1">
    <mxGraphModel dx="951" dy="549" grid="1" gridSize="10" guides="1" tooltips="1" connect="1" arrows="1" fold="1" page="1" pageScale="1" pageWidth="827" pageHeight="1169" math="0" shadow="0">
      <root>
        <mxCell id="WIyWlLk6GJQsqaUBKTNV-0" />
        <mxCell id="WIyWlLk6GJQsqaUBKTNV-1" parent="WIyWlLk6GJQsqaUBKTNV-0" />
        <mxCell id="QacSNVhLuttchNlNquSz-3" value="Data &amp; Features" style="swimlane;fillColor=#ffe6cc;strokeColor=#d79b00;" vertex="1" parent="WIyWlLk6GJQsqaUBKTNV-1">
          <mxGeometry x="100" y="230" width="160" height="230" as="geometry">
            <mxRectangle x="130" y="270" width="130" height="30" as="alternateBounds" />
          </mxGeometry>
        </mxCell>
        <mxCell id="QacSNVhLuttchNlNquSz-2" value="Demographic" style="rounded=1;whiteSpace=wrap;html=1;fillColor=#ffe6cc;strokeColor=#d79b00;" vertex="1" parent="QacSNVhLuttchNlNquSz-3">
          <mxGeometry x="20" y="40" width="120" height="30" as="geometry" />
        </mxCell>
        <mxCell id="QacSNVhLuttchNlNquSz-4" value="Rental Data" style="rounded=1;whiteSpace=wrap;html=1;fillColor=#ffe6cc;strokeColor=#d79b00;" vertex="1" parent="QacSNVhLuttchNlNquSz-3">
          <mxGeometry x="20" y="85" width="120" height="30" as="geometry" />
        </mxCell>
        <mxCell id="QacSNVhLuttchNlNquSz-5" value="Economy Data" style="rounded=1;whiteSpace=wrap;html=1;fillColor=#ffe6cc;strokeColor=#d79b00;" vertex="1" parent="QacSNVhLuttchNlNquSz-3">
          <mxGeometry x="20" y="180" width="120" height="30" as="geometry" />
        </mxCell>
        <mxCell id="QacSNVhLuttchNlNquSz-6" value="Tenant Data" style="rounded=1;whiteSpace=wrap;html=1;fillColor=#ffe6cc;strokeColor=#d79b00;" vertex="1" parent="QacSNVhLuttchNlNquSz-3">
          <mxGeometry x="20" y="130" width="120" height="30" as="geometry" />
        </mxCell>
        <mxCell id="QacSNVhLuttchNlNquSz-10" style="edgeStyle=orthogonalEdgeStyle;rounded=0;orthogonalLoop=1;jettySize=auto;html=1;exitX=1;exitY=0.5;exitDx=0;exitDy=0;flowAnimation=1;fillColor=#ffe6cc;strokeColor=#d79b00;" edge="1" parent="WIyWlLk6GJQsqaUBKTNV-1" source="QacSNVhLuttchNlNquSz-4" target="QacSNVhLuttchNlNquSz-8">
          <mxGeometry relative="1" as="geometry" />
        </mxCell>
        <mxCell id="QacSNVhLuttchNlNquSz-11" style="edgeStyle=orthogonalEdgeStyle;rounded=0;orthogonalLoop=1;jettySize=auto;html=1;exitX=1;exitY=0.5;exitDx=0;exitDy=0;flowAnimation=1;fillColor=#ffe6cc;strokeColor=#d79b00;" edge="1" parent="WIyWlLk6GJQsqaUBKTNV-1" source="QacSNVhLuttchNlNquSz-2" target="QacSNVhLuttchNlNquSz-8">
          <mxGeometry relative="1" as="geometry" />
        </mxCell>
        <mxCell id="QacSNVhLuttchNlNquSz-12" style="edgeStyle=orthogonalEdgeStyle;rounded=0;orthogonalLoop=1;jettySize=auto;html=1;exitX=1;exitY=0.5;exitDx=0;exitDy=0;flowAnimation=1;fillColor=#ffe6cc;strokeColor=#d79b00;" edge="1" parent="WIyWlLk6GJQsqaUBKTNV-1" source="QacSNVhLuttchNlNquSz-6" target="QacSNVhLuttchNlNquSz-8">
          <mxGeometry relative="1" as="geometry" />
        </mxCell>
        <mxCell id="QacSNVhLuttchNlNquSz-13" style="edgeStyle=orthogonalEdgeStyle;rounded=0;orthogonalLoop=1;jettySize=auto;html=1;exitX=1;exitY=0.5;exitDx=0;exitDy=0;snapToPoint=0;flowAnimation=1;fillColor=#ffe6cc;strokeColor=#d79b00;" edge="1" parent="WIyWlLk6GJQsqaUBKTNV-1" source="QacSNVhLuttchNlNquSz-5" target="QacSNVhLuttchNlNquSz-8">
          <mxGeometry relative="1" as="geometry" />
        </mxCell>
        <mxCell id="QacSNVhLuttchNlNquSz-14" value="Model" style="swimlane;fillColor=#dae8fc;strokeColor=#6c8ebf;" vertex="1" parent="WIyWlLk6GJQsqaUBKTNV-1">
          <mxGeometry x="330" y="230" width="160" height="230" as="geometry">
            <mxRectangle x="130" y="270" width="130" height="30" as="alternateBounds" />
          </mxGeometry>
        </mxCell>
        <mxCell id="QacSNVhLuttchNlNquSz-8" value="" style="sketch=0;outlineConnect=0;fillColor=#0050ef;strokeColor=#001DBC;dashed=0;verticalLabelPosition=bottom;verticalAlign=top;align=center;html=1;fontSize=12;fontStyle=0;aspect=fixed;pointerEvents=1;shape=mxgraph.aws4.sagemaker_model;fontColor=#ffffff;" vertex="1" parent="QacSNVhLuttchNlNquSz-14">
          <mxGeometry x="41" y="82" width="78" height="78" as="geometry" />
        </mxCell>
        <mxCell id="QacSNVhLuttchNlNquSz-23" value="Rental Estimation" style="swimlane;childLayout=stackLayout;resizeParent=1;resizeParentMax=0;horizontal=1;startSize=20;horizontalStack=0;html=1;fillColor=#d5e8d4;strokeColor=#82b366;" vertex="1" parent="WIyWlLk6GJQsqaUBKTNV-1">
          <mxGeometry x="551" y="240" width="170" height="200" as="geometry" />
        </mxCell>
        <mxCell id="QacSNVhLuttchNlNquSz-30" value="Shop A" style="swimlane;startSize=20;horizontal=0;html=1;fillColor=#d5e8d4;strokeColor=#82b366;" vertex="1" parent="QacSNVhLuttchNlNquSz-23">
          <mxGeometry y="20" width="170" height="60" as="geometry" />
        </mxCell>
        <mxCell id="QacSNVhLuttchNlNquSz-33" value="$ 150,000" style="text;html=1;align=center;verticalAlign=middle;resizable=0;points=[];autosize=1;strokeColor=none;fillColor=none;fontStyle=1;fontSize=18;" vertex="1" parent="QacSNVhLuttchNlNquSz-30">
          <mxGeometry x="40" y="10" width="100" height="40" as="geometry" />
        </mxCell>
        <mxCell id="QacSNVhLuttchNlNquSz-29" value="Shop B" style="swimlane;startSize=20;horizontal=0;html=1;fillColor=#d5e8d4;strokeColor=#82b366;" vertex="1" parent="QacSNVhLuttchNlNquSz-23">
          <mxGeometry y="80" width="170" height="60" as="geometry" />
        </mxCell>
        <mxCell id="QacSNVhLuttchNlNquSz-34" value="$ 205,000" style="text;html=1;align=center;verticalAlign=middle;resizable=0;points=[];autosize=1;strokeColor=none;fillColor=none;fontStyle=1;fontSize=18;" vertex="1" parent="QacSNVhLuttchNlNquSz-29">
          <mxGeometry x="40" y="6" width="100" height="40" as="geometry" />
        </mxCell>
        <mxCell id="QacSNVhLuttchNlNquSz-24" value="Shop C" style="swimlane;startSize=20;horizontal=0;html=1;fillColor=#d5e8d4;strokeColor=#82b366;" vertex="1" parent="QacSNVhLuttchNlNquSz-23">
          <mxGeometry y="140" width="170" height="60" as="geometry" />
        </mxCell>
        <mxCell id="QacSNVhLuttchNlNquSz-35" value="$ 122,000" style="text;html=1;align=center;verticalAlign=middle;resizable=0;points=[];autosize=1;strokeColor=none;fillColor=none;fontStyle=1;fontSize=18;" vertex="1" parent="QacSNVhLuttchNlNquSz-24">
          <mxGeometry x="40" y="10" width="100" height="40" as="geometry" />
        </mxCell>
        <mxCell id="QacSNVhLuttchNlNquSz-38" style="edgeStyle=orthogonalEdgeStyle;rounded=0;orthogonalLoop=1;jettySize=auto;html=1;entryX=0;entryY=0.5;entryDx=0;entryDy=0;noJump=0;flowAnimation=1;fillColor=#dae8fc;strokeColor=#6c8ebf;" edge="1" parent="WIyWlLk6GJQsqaUBKTNV-1" source="QacSNVhLuttchNlNquSz-8" target="QacSNVhLuttchNlNquSz-30">
          <mxGeometry relative="1" as="geometry" />
        </mxCell>
        <mxCell id="QacSNVhLuttchNlNquSz-39" style="edgeStyle=orthogonalEdgeStyle;rounded=0;orthogonalLoop=1;jettySize=auto;html=1;noJump=0;flowAnimation=1;entryX=0;entryY=0.5;entryDx=0;entryDy=0;fillColor=#dae8fc;strokeColor=#6c8ebf;" edge="1" parent="WIyWlLk6GJQsqaUBKTNV-1" source="QacSNVhLuttchNlNquSz-8" target="QacSNVhLuttchNlNquSz-29">
          <mxGeometry relative="1" as="geometry">
            <mxPoint x="429" y="361" as="sourcePoint" />
            <mxPoint x="530" y="351" as="targetPoint" />
          </mxGeometry>
        </mxCell>
        <mxCell id="QacSNVhLuttchNlNquSz-40" style="edgeStyle=orthogonalEdgeStyle;rounded=0;orthogonalLoop=1;jettySize=auto;html=1;noJump=0;flowAnimation=1;entryX=0;entryY=0.5;entryDx=0;entryDy=0;fillColor=#dae8fc;strokeColor=#6c8ebf;" edge="1" parent="WIyWlLk6GJQsqaUBKTNV-1" source="QacSNVhLuttchNlNquSz-8" target="QacSNVhLuttchNlNquSz-24">
          <mxGeometry relative="1" as="geometry">
            <mxPoint x="429" y="361" as="sourcePoint" />
            <mxPoint x="540" y="361" as="targetPoint" />
          </mxGeometry>
        </mxCell>
      </root>
    </mxGraphModel>
  </diagram>
</mxfile>
